# xmcd
#
# Track frame offsets:
#	150
#	17957
#	42198
#	62104
#	76608
#	98856
#	112614
#	126645
#	144398
#	158640
#
# Disc length: 2409 seconds
#
# Revision: 0
# Processed by: cddbd v1.5.2PL0 Copyright (c) Steve Scherf et al.
# Submitted via: EasyCDDAExtractor 16.0.9.1
#
DISCID=7809670a
DTITLE=Various Artist - AsiaCD297 - Ngày Nào Em Đi Lấy Chồng
DYEAR=2010
DGENRE=Pop
TTITLE0=Thủy Hương and Mai Thanh Sơn - Ngày Nào Em Đi Lấy Chồng
TTITLE1=Ánh Minh and Đoàn Phi - Bước Tình Hồng and Qua Cầu Gió Bay
TTITLE2=Quốc Khanh - Em Lễ Chùa Này and Chuyện Tình Buồn
TTITLE3=Diễm Liên - Xuân Vui Ca
TTITLE4=Lâm Nhật Tiến - Em Đã Thấy Mùa Xuân Chưa
TTITLE5=Thiên Kim - Mộng Ban Đầu
TTITLE6=Y Phương - Mừng Xuân
TTITLE7=Hồ Hoàng Yến - Như Giọt Sầu Rơi
TTITLE8=Nguyên Khang - Tiễn Bước Sang Ngang
TTITLE9=Lâm Thúy Vân - Gọi Anh Mùa Xuân
EXTD=
EXTT0=
EXTT1=
EXTT2=
EXTT3=
EXTT4=
EXTT5=
EXTT6=
EXTT7=
EXTT8=
EXTT9=
PLAYORDER=
